ISO-10303-21;
HEADER;
/* Generated by software containing ST-Developer
 * from STEP Tools, Inc. (www.steptools.com) 
 */
/* OPTION: using custom renumber hook */

FILE_DESCRIPTION(
/* description */ ('STEP AP214'),
/* implementation_level */ '2;1');

FILE_NAME(
/* name */ '6072fd28039913158b8cb110',
/* time_stamp */ '2021-04-11T13:44:09+00:00',
/* author */ (''),
/* organization */ (''),
/* preprocessor_version */ 'ST-DEVELOPER v18.1',
/* originating_system */ '  ',
/* authorisation */ '  ');

FILE_SCHEMA (('AUTOMOTIVE_DESIGN {1 0 10303 214 3 1 1}'));
ENDSEC;

DATA;
#10=PROPERTY_DEFINITION_REPRESENTATION(#14,#12);
#11=PROPERTY_DEFINITION_REPRESENTATION(#15,#13);
#12=REPRESENTATION('',(#16),#392);
#13=REPRESENTATION('',(#17),#392);
#14=PROPERTY_DEFINITION('pmi validation property','',#397);
#15=PROPERTY_DEFINITION('pmi validation property','',#397);
#16=VALUE_REPRESENTATION_ITEM('number of annotations',COUNT_MEASURE(0.));
#17=VALUE_REPRESENTATION_ITEM('number of views',COUNT_MEASURE(0.));
#18=SHAPE_REPRESENTATION_RELATIONSHIP('','',#233,#19);
#19=ADVANCED_BREP_SHAPE_REPRESENTATION('',(#231),#392);
#20=TOROIDAL_SURFACE('',#266,0.0048,0.0002);
#21=TOROIDAL_SURFACE('',#267,0.0017,0.0002);
#22=TOROIDAL_SURFACE('',#268,0.0017,0.0002);
#23=OVER_RIDING_STYLED_ITEM('',(#212),#195,#210);
#24=OVER_RIDING_STYLED_ITEM('',(#213),#203,#210);
#25=PLANE('',#238);
#26=PLANE('',#243);
#27=PLANE('',#247);
#28=PLANE('',#251);
#29=PLANE('',#255);
#30=PLANE('',#260);
#31=PLANE('',#264);
#32=ORIENTED_EDGE('',*,*,#66,.T.);
#33=ORIENTED_EDGE('',*,*,#67,.T.);
#34=ORIENTED_EDGE('',*,*,#68,.T.);
#35=ORIENTED_EDGE('',*,*,#69,.T.);
#36=ORIENTED_EDGE('',*,*,#70,.T.);
#37=ORIENTED_EDGE('',*,*,#69,.F.);
#38=ORIENTED_EDGE('',*,*,#71,.T.);
#39=ORIENTED_EDGE('',*,*,#70,.F.);
#40=ORIENTED_EDGE('',*,*,#72,.T.);
#41=ORIENTED_EDGE('',*,*,#71,.F.);
#42=ORIENTED_EDGE('',*,*,#73,.T.);
#43=ORIENTED_EDGE('',*,*,#72,.F.);
#44=ORIENTED_EDGE('',*,*,#74,.T.);
#45=ORIENTED_EDGE('',*,*,#73,.F.);
#46=ORIENTED_EDGE('',*,*,#75,.T.);
#47=ORIENTED_EDGE('',*,*,#74,.F.);
#48=ORIENTED_EDGE('',*,*,#76,.T.);
#49=ORIENTED_EDGE('',*,*,#75,.F.);
#50=ORIENTED_EDGE('',*,*,#77,.T.);
#51=ORIENTED_EDGE('',*,*,#78,.T.);
#52=ORIENTED_EDGE('',*,*,#79,.T.);
#53=ORIENTED_EDGE('',*,*,#78,.F.);
#54=ORIENTED_EDGE('',*,*,#80,.T.);
#55=ORIENTED_EDGE('',*,*,#79,.F.);
#56=ORIENTED_EDGE('',*,*,#81,.T.);
#57=ORIENTED_EDGE('',*,*,#80,.F.);
#58=ORIENTED_EDGE('',*,*,#82,.T.);
#59=ORIENTED_EDGE('',*,*,#81,.F.);
#60=ORIENTED_EDGE('',*,*,#77,.F.);
#61=ORIENTED_EDGE('',*,*,#76,.F.);
#62=ORIENTED_EDGE('',*,*,#66,.F.);
#63=ORIENTED_EDGE('',*,*,#82,.F.);
#64=ORIENTED_EDGE('',*,*,#68,.F.);
#65=ORIENTED_EDGE('',*,*,#67,.F.);
#66=EDGE_CURVE('',#83,#83,#100,.T.);
#67=EDGE_CURVE('',#84,#84,#101,.T.);
#68=EDGE_CURVE('',#85,#85,#102,.F.);
#69=EDGE_CURVE('',#86,#86,#103,.T.);
#70=EDGE_CURVE('',#87,#87,#104,.T.);
#71=EDGE_CURVE('',#88,#88,#105,.T.);
#72=EDGE_CURVE('',#89,#89,#106,.T.);
#73=EDGE_CURVE('',#90,#90,#107,.T.);
#74=EDGE_CURVE('',#91,#91,#108,.T.);
#75=EDGE_CURVE('',#92,#92,#109,.T.);
#76=EDGE_CURVE('',#93,#93,#110,.F.);
#77=EDGE_CURVE('',#94,#94,#111,.T.);
#78=EDGE_CURVE('',#95,#95,#112,.T.);
#79=EDGE_CURVE('',#96,#96,#113,.T.);
#80=EDGE_CURVE('',#97,#97,#114,.T.);
#81=EDGE_CURVE('',#98,#98,#115,.T.);
#82=EDGE_CURVE('',#99,#99,#116,.F.);
#83=VERTEX_POINT('',#342);
#84=VERTEX_POINT('',#344);
#85=VERTEX_POINT('',#347);
#86=VERTEX_POINT('',#349);
#87=VERTEX_POINT('',#352);
#88=VERTEX_POINT('',#355);
#89=VERTEX_POINT('',#358);
#90=VERTEX_POINT('',#361);
#91=VERTEX_POINT('',#364);
#92=VERTEX_POINT('',#367);
#93=VERTEX_POINT('',#370);
#94=VERTEX_POINT('',#373);
#95=VERTEX_POINT('',#375);
#96=VERTEX_POINT('',#378);
#97=VERTEX_POINT('',#381);
#98=VERTEX_POINT('',#384);
#99=VERTEX_POINT('',#387);
#100=CIRCLE('',#236,0.0015);
#101=CIRCLE('',#237,0.0015);
#102=CIRCLE('',#239,0.0017);
#103=CIRCLE('',#240,0.0027);
#104=CIRCLE('',#242,0.0027);
#105=CIRCLE('',#244,0.00395);
#106=CIRCLE('',#246,0.00395);
#107=CIRCLE('',#248,0.00575);
#108=CIRCLE('',#250,0.00575);
#109=CIRCLE('',#252,0.005);
#110=CIRCLE('',#254,0.005);
#111=CIRCLE('',#256,0.0048);
#112=CIRCLE('',#257,0.00395);
#113=CIRCLE('',#259,0.00395);
#114=CIRCLE('',#261,0.0027);
#115=CIRCLE('',#263,0.0027);
#116=CIRCLE('',#265,0.0017);
#117=EDGE_LOOP('',(#32));
#118=EDGE_LOOP('',(#33));
#119=EDGE_LOOP('',(#34));
#120=EDGE_LOOP('',(#35));
#121=EDGE_LOOP('',(#36));
#122=EDGE_LOOP('',(#37));
#123=EDGE_LOOP('',(#38));
#124=EDGE_LOOP('',(#39));
#125=EDGE_LOOP('',(#40));
#126=EDGE_LOOP('',(#41));
#127=EDGE_LOOP('',(#42));
#128=EDGE_LOOP('',(#43));
#129=EDGE_LOOP('',(#44));
#130=EDGE_LOOP('',(#45));
#131=EDGE_LOOP('',(#46));
#132=EDGE_LOOP('',(#47));
#133=EDGE_LOOP('',(#48));
#134=EDGE_LOOP('',(#49));
#135=EDGE_LOOP('',(#50));
#136=EDGE_LOOP('',(#51));
#137=EDGE_LOOP('',(#52));
#138=EDGE_LOOP('',(#53));
#139=EDGE_LOOP('',(#54));
#140=EDGE_LOOP('',(#55));
#141=EDGE_LOOP('',(#56));
#142=EDGE_LOOP('',(#57));
#143=EDGE_LOOP('',(#58));
#144=EDGE_LOOP('',(#59));
#145=EDGE_LOOP('',(#60));
#146=EDGE_LOOP('',(#61));
#147=EDGE_LOOP('',(#62));
#148=EDGE_LOOP('',(#63));
#149=EDGE_LOOP('',(#64));
#150=EDGE_LOOP('',(#65));
#151=FACE_BOUND('',#117,.T.);
#152=FACE_BOUND('',#118,.T.);
#153=FACE_BOUND('',#119,.T.);
#154=FACE_BOUND('',#120,.T.);
#155=FACE_BOUND('',#121,.T.);
#156=FACE_BOUND('',#122,.T.);
#157=FACE_BOUND('',#123,.T.);
#158=FACE_BOUND('',#124,.T.);
#159=FACE_BOUND('',#125,.T.);
#160=FACE_BOUND('',#126,.T.);
#161=FACE_BOUND('',#127,.T.);
#162=FACE_BOUND('',#128,.T.);
#163=FACE_BOUND('',#129,.T.);
#164=FACE_BOUND('',#130,.T.);
#165=FACE_BOUND('',#131,.T.);
#166=FACE_BOUND('',#132,.T.);
#167=FACE_BOUND('',#133,.T.);
#168=FACE_BOUND('',#134,.T.);
#169=FACE_BOUND('',#135,.T.);
#170=FACE_BOUND('',#136,.T.);
#171=FACE_BOUND('',#137,.T.);
#172=FACE_BOUND('',#138,.T.);
#173=FACE_BOUND('',#139,.T.);
#174=FACE_BOUND('',#140,.T.);
#175=FACE_BOUND('',#141,.T.);
#176=FACE_BOUND('',#142,.T.);
#177=FACE_BOUND('',#143,.T.);
#178=FACE_BOUND('',#144,.T.);
#179=FACE_BOUND('',#145,.T.);
#180=FACE_BOUND('',#146,.T.);
#181=FACE_BOUND('',#147,.T.);
#182=FACE_BOUND('',#148,.T.);
#183=FACE_BOUND('',#149,.T.);
#184=FACE_BOUND('',#150,.T.);
#185=CYLINDRICAL_SURFACE('',#235,0.0015);
#186=CYLINDRICAL_SURFACE('',#241,0.0027);
#187=CYLINDRICAL_SURFACE('',#245,0.00395);
#188=CYLINDRICAL_SURFACE('',#249,0.00575);
#189=CYLINDRICAL_SURFACE('',#253,0.005);
#190=CYLINDRICAL_SURFACE('',#258,0.00395);
#191=CYLINDRICAL_SURFACE('',#262,0.0027);
#192=ADVANCED_FACE('',(#151,#152),#185,.F.);
#193=ADVANCED_FACE('',(#153,#154),#25,.T.);
#194=ADVANCED_FACE('',(#155,#156),#186,.T.);
#195=ADVANCED_FACE('',(#157,#158),#26,.T.);
#196=ADVANCED_FACE('',(#159,#160),#187,.F.);
#197=ADVANCED_FACE('',(#161,#162),#27,.T.);
#198=ADVANCED_FACE('',(#163,#164),#188,.T.);
#199=ADVANCED_FACE('',(#165,#166),#28,.T.);
#200=ADVANCED_FACE('',(#167,#168),#189,.T.);
#201=ADVANCED_FACE('',(#169,#170),#29,.T.);
#202=ADVANCED_FACE('',(#171,#172),#190,.F.);
#203=ADVANCED_FACE('',(#173,#174),#30,.T.);
#204=ADVANCED_FACE('',(#175,#176),#191,.T.);
#205=ADVANCED_FACE('',(#177,#178),#31,.T.);
#206=ADVANCED_FACE('',(#179,#180),#20,.T.);
#207=ADVANCED_FACE('',(#181,#182),#21,.T.);
#208=ADVANCED_FACE('',(#183,#184),#22,.T.);
#209=CLOSED_SHELL('',(#192,#193,#194,#195,#196,#197,#198,#199,#200,#201,
#202,#203,#204,#205,#206,#207,#208));
#210=STYLED_ITEM('',(#211),#231);
#211=PRESENTATION_STYLE_ASSIGNMENT((#214));
#212=PRESENTATION_STYLE_ASSIGNMENT((#215));
#213=PRESENTATION_STYLE_ASSIGNMENT((#216));
#214=SURFACE_STYLE_USAGE(.BOTH.,#217);
#215=SURFACE_STYLE_USAGE(.BOTH.,#218);
#216=SURFACE_STYLE_USAGE(.BOTH.,#219);
#217=SURFACE_SIDE_STYLE('',(#220));
#218=SURFACE_SIDE_STYLE('',(#221));
#219=SURFACE_SIDE_STYLE('',(#222));
#220=SURFACE_STYLE_FILL_AREA(#223);
#221=SURFACE_STYLE_FILL_AREA(#224);
#222=SURFACE_STYLE_FILL_AREA(#225);
#223=FILL_AREA_STYLE('',(#226));
#224=FILL_AREA_STYLE('',(#227));
#225=FILL_AREA_STYLE('',(#228));
#226=FILL_AREA_STYLE_COLOUR('',#229);
#227=FILL_AREA_STYLE_COLOUR('',#230);
#228=FILL_AREA_STYLE_COLOUR('',#230);
#229=COLOUR_RGB('',0.917647058823529,0.917647058823529,0.917647058823529);
#230=COLOUR_RGB('',0.964705882352941,0.913725490196078,0.756862745098039);
#231=MANIFOLD_SOLID_BREP('F623ZZ Flange Bearing',#209);
#232=SHAPE_DEFINITION_REPRESENTATION(#397,#233);
#233=SHAPE_REPRESENTATION('F623ZZ Flange Bearing',(#234),#392);
#234=AXIS2_PLACEMENT_3D('',#339,#269,#270);
#235=AXIS2_PLACEMENT_3D('',#340,#271,#272);
#236=AXIS2_PLACEMENT_3D('',#341,#273,#274);
#237=AXIS2_PLACEMENT_3D('',#343,#275,#276);
#238=AXIS2_PLACEMENT_3D('',#345,#277,#278);
#239=AXIS2_PLACEMENT_3D('',#346,#279,#280);
#240=AXIS2_PLACEMENT_3D('',#348,#281,#282);
#241=AXIS2_PLACEMENT_3D('',#350,#283,#284);
#242=AXIS2_PLACEMENT_3D('',#351,#285,#286);
#243=AXIS2_PLACEMENT_3D('',#353,#287,#288);
#244=AXIS2_PLACEMENT_3D('',#354,#289,#290);
#245=AXIS2_PLACEMENT_3D('',#356,#291,#292);
#246=AXIS2_PLACEMENT_3D('',#357,#293,#294);
#247=AXIS2_PLACEMENT_3D('',#359,#295,#296);
#248=AXIS2_PLACEMENT_3D('',#360,#297,#298);
#249=AXIS2_PLACEMENT_3D('',#362,#299,#300);
#250=AXIS2_PLACEMENT_3D('',#363,#301,#302);
#251=AXIS2_PLACEMENT_3D('',#365,#303,#304);
#252=AXIS2_PLACEMENT_3D('',#366,#305,#306);
#253=AXIS2_PLACEMENT_3D('',#368,#307,#308);
#254=AXIS2_PLACEMENT_3D('',#369,#309,#310);
#255=AXIS2_PLACEMENT_3D('',#371,#311,#312);
#256=AXIS2_PLACEMENT_3D('',#372,#313,#314);
#257=AXIS2_PLACEMENT_3D('',#374,#315,#316);
#258=AXIS2_PLACEMENT_3D('',#376,#317,#318);
#259=AXIS2_PLACEMENT_3D('',#377,#319,#320);
#260=AXIS2_PLACEMENT_3D('',#379,#321,#322);
#261=AXIS2_PLACEMENT_3D('',#380,#323,#324);
#262=AXIS2_PLACEMENT_3D('',#382,#325,#326);
#263=AXIS2_PLACEMENT_3D('',#383,#327,#328);
#264=AXIS2_PLACEMENT_3D('',#385,#329,#330);
#265=AXIS2_PLACEMENT_3D('',#386,#331,#332);
#266=AXIS2_PLACEMENT_3D('',#388,#333,#334);
#267=AXIS2_PLACEMENT_3D('',#389,#335,#336);
#268=AXIS2_PLACEMENT_3D('',#390,#337,#338);
#269=DIRECTION('',(0.,0.,1.));
#270=DIRECTION('',(1.,0.,0.));
#271=DIRECTION('',(0.,1.,0.));
#272=DIRECTION('',(0.,0.,1.));
#273=DIRECTION('',(0.,-1.,0.));
#274=DIRECTION('',(0.,0.,-1.));
#275=DIRECTION('',(0.,1.,0.));
#276=DIRECTION('',(0.,0.,1.));
#277=DIRECTION('',(0.,1.,0.));
#278=DIRECTION('',(0.,0.,1.));
#279=DIRECTION('',(0.,1.,0.));
#280=DIRECTION('',(0.,0.,1.));
#281=DIRECTION('',(0.,1.,0.));
#282=DIRECTION('',(0.,0.,1.));
#283=DIRECTION('',(0.,1.,0.));
#284=DIRECTION('',(0.,0.,1.));
#285=DIRECTION('',(0.,1.,0.));
#286=DIRECTION('',(0.,0.,1.));
#287=DIRECTION('',(0.,1.,0.));
#288=DIRECTION('',(0.,0.,1.));
#289=DIRECTION('',(0.,1.,0.));
#290=DIRECTION('',(0.,0.,1.));
#291=DIRECTION('',(0.,1.,0.));
#292=DIRECTION('',(0.,0.,1.));
#293=DIRECTION('',(0.,1.,0.));
#294=DIRECTION('',(0.,0.,1.));
#295=DIRECTION('',(0.,1.,0.));
#296=DIRECTION('',(0.,0.,1.));
#297=DIRECTION('',(0.,1.,0.));
#298=DIRECTION('',(0.,0.,1.));
#299=DIRECTION('',(0.,1.,0.));
#300=DIRECTION('',(0.,0.,1.));
#301=DIRECTION('',(0.,1.,0.));
#302=DIRECTION('',(0.,0.,1.));
#303=DIRECTION('',(0.,-1.,0.));
#304=DIRECTION('',(0.,0.,-1.));
#305=DIRECTION('',(0.,1.,0.));
#306=DIRECTION('',(0.,0.,1.));
#307=DIRECTION('',(0.,1.,0.));
#308=DIRECTION('',(0.,0.,1.));
#309=DIRECTION('',(0.,-1.,0.));
#310=DIRECTION('',(0.,0.,-1.));
#311=DIRECTION('',(0.,-1.,0.));
#312=DIRECTION('',(0.,0.,-1.));
#313=DIRECTION('',(0.,-1.,0.));
#314=DIRECTION('',(0.,0.,-1.));
#315=DIRECTION('',(0.,1.,0.));
#316=DIRECTION('',(0.,0.,1.));
#317=DIRECTION('',(0.,1.,0.));
#318=DIRECTION('',(0.,0.,1.));
#319=DIRECTION('',(0.,1.,0.));
#320=DIRECTION('',(0.,0.,1.));
#321=DIRECTION('',(0.,-1.,0.));
#322=DIRECTION('',(0.,0.,-1.));
#323=DIRECTION('',(0.,1.,0.));
#324=DIRECTION('',(0.,0.,1.));
#325=DIRECTION('',(0.,1.,0.));
#326=DIRECTION('',(0.,0.,1.));
#327=DIRECTION('',(0.,1.,0.));
#328=DIRECTION('',(0.,0.,1.));
#329=DIRECTION('',(0.,-1.,0.));
#330=DIRECTION('',(0.,0.,-1.));
#331=DIRECTION('',(0.,-1.,0.));
#332=DIRECTION('',(0.,0.,-1.));
#333=DIRECTION('',(0.,-1.,0.));
#334=DIRECTION('',(0.,0.,-1.));
#335=DIRECTION('',(0.,-1.,0.));
#336=DIRECTION('',(0.,0.,-1.));
#337=DIRECTION('',(0.,1.,0.));
#338=DIRECTION('',(0.,0.,1.));
#339=CARTESIAN_POINT('',(0.,0.,0.));
#340=CARTESIAN_POINT('',(0.,-0.002,0.));
#341=CARTESIAN_POINT('',(0.,-0.0038,0.));
#342=CARTESIAN_POINT('',(0.,-0.0038,-0.0015));
#343=CARTESIAN_POINT('',(0.,-0.0002,0.));
#344=CARTESIAN_POINT('',(0.,-0.0002,0.0015));
#345=CARTESIAN_POINT('',(0.,2.71050543121376E-20,0.0021));
#346=CARTESIAN_POINT('',(0.,2.71050543121376E-20,0.));
#347=CARTESIAN_POINT('',(0.,2.71050543121376E-20,0.0017));
#348=CARTESIAN_POINT('',(0.,0.,0.));
#349=CARTESIAN_POINT('',(0.,0.,0.0027));
#350=CARTESIAN_POINT('',(0.,-0.002,0.));
#351=CARTESIAN_POINT('',(0.,-0.0001,0.));
#352=CARTESIAN_POINT('',(0.,-0.0001,0.0027));
#353=CARTESIAN_POINT('',(0.,-0.0001,0.003325));
#354=CARTESIAN_POINT('',(0.,-0.0001,0.));
#355=CARTESIAN_POINT('',(0.,-0.0001,0.00395));
#356=CARTESIAN_POINT('',(0.,-0.002,0.));
#357=CARTESIAN_POINT('',(0.,0.,0.));
#358=CARTESIAN_POINT('',(0.,0.,0.00395));
#359=CARTESIAN_POINT('',(0.,-4.46270135871889E-21,0.00485));
#360=CARTESIAN_POINT('',(0.,0.,0.));
#361=CARTESIAN_POINT('',(0.,0.,0.00575));
#362=CARTESIAN_POINT('',(0.,-0.002,0.));
#363=CARTESIAN_POINT('',(0.,-0.001,0.));
#364=CARTESIAN_POINT('',(0.,-0.001,0.00575));
#365=CARTESIAN_POINT('',(0.,-0.001,0.005375));
#366=CARTESIAN_POINT('',(0.,-0.001,0.));
#367=CARTESIAN_POINT('',(0.,-0.001,0.005));
#368=CARTESIAN_POINT('',(0.,-0.002,0.));
#369=CARTESIAN_POINT('',(0.,-0.0038,0.));
#370=CARTESIAN_POINT('',(0.,-0.0038,-0.005));
#371=CARTESIAN_POINT('',(0.,-0.004,0.004475));
#372=CARTESIAN_POINT('',(0.,-0.004,0.));
#373=CARTESIAN_POINT('',(0.,-0.004,-0.0048));
#374=CARTESIAN_POINT('',(0.,-0.004,0.));
#375=CARTESIAN_POINT('',(0.,-0.004,0.00395));
#376=CARTESIAN_POINT('',(0.,-0.002,0.));
#377=CARTESIAN_POINT('',(0.,-0.0039,0.));
#378=CARTESIAN_POINT('',(0.,-0.0039,0.00395));
#379=CARTESIAN_POINT('',(0.,-0.0039,0.003325));
#380=CARTESIAN_POINT('',(0.,-0.0039,0.));
#381=CARTESIAN_POINT('',(0.,-0.0039,0.0027));
#382=CARTESIAN_POINT('',(0.,-0.002,0.));
#383=CARTESIAN_POINT('',(0.,-0.004,0.));
#384=CARTESIAN_POINT('',(0.,-0.004,0.0027));
#385=CARTESIAN_POINT('',(0.,-0.004,0.0021));
#386=CARTESIAN_POINT('',(0.,-0.004,0.));
#387=CARTESIAN_POINT('',(0.,-0.004,-0.0017));
#388=CARTESIAN_POINT('',(0.,-0.0038,0.));
#389=CARTESIAN_POINT('',(0.,-0.0038,0.));
#390=CARTESIAN_POINT('',(0.,-0.0002,0.));
#391=MECHANICAL_DESIGN_GEOMETRIC_PRESENTATION_REPRESENTATION('',(#210,#23,
#24),#392);
#392=(
GEOMETRIC_REPRESENTATION_CONTEXT(3)
GLOBAL_UNCERTAINTY_ASSIGNED_CONTEXT((#393))
GLOBAL_UNIT_ASSIGNED_CONTEXT((#396,#395,#394))
REPRESENTATION_CONTEXT('F623ZZ Flange Bearing',
'TOP_LEVEL_ASSEMBLY_PART')
);
#393=UNCERTAINTY_MEASURE_WITH_UNIT(LENGTH_MEASURE(5.E-6),#396,
'DISTANCE_ACCURACY_VALUE','Maximum Tolerance applied to model');
#394=(
NAMED_UNIT(*)
SI_UNIT($,.STERADIAN.)
SOLID_ANGLE_UNIT()
);
#395=(
NAMED_UNIT(*)
PLANE_ANGLE_UNIT()
SI_UNIT($,.RADIAN.)
);
#396=(
LENGTH_UNIT()
NAMED_UNIT(*)
SI_UNIT($,.METRE.)
);
#397=PRODUCT_DEFINITION_SHAPE('','',#398);
#398=PRODUCT_DEFINITION('','',#400,#399);
#399=PRODUCT_DEFINITION_CONTEXT('',#406,'design');
#400=PRODUCT_DEFINITION_FORMATION_WITH_SPECIFIED_SOURCE('','',#402,
 .NOT_KNOWN.);
#401=PRODUCT_RELATED_PRODUCT_CATEGORY('','',(#402));
#402=PRODUCT('F623ZZ Flange Bearing','F623ZZ Flange Bearing',
'F623ZZ Flange Bearing',(#404));
#403=PRODUCT_CATEGORY('','');
#404=PRODUCT_CONTEXT('',#406,'mechanical');
#405=APPLICATION_PROTOCOL_DEFINITION('international standard',
'automotive_design',2010,#406);
#406=APPLICATION_CONTEXT(
'core data for automotive mechanical design processes');
ENDSEC;
END-ISO-10303-21;
